HIERARCHY
ROOT pelvis
{
  OFFSET 0 100 0
  CHANNELS 6 Xposition Yposition Zposition Zrotation Xrotation Yrotation
  JOINT pelvis_right_femur
  {
    OFFSET -10.78128 -3.44521 -0.5502486
    CHANNELS 3 Zrotation Xrotation Yrotation
    JOINT right_femur_tibia
    {
      OFFSET -0.8047443 -44.0398 -0.1307829
      CHANNELS 3 Zrotation Xrotation Yrotation
      JOINT right_tibia_foot
      {
        OFFSET 3.006224 -47.83518 -5
        CHANNELS 3 Zrotation Xrotation Yrotation
        End Site
        {
          OFFSET 0 -5 15
        }
      }
    }
  }
  JOINT pelvis_left_femur
  {
    OFFSET 10.78128 -3.44521 -0.5502486
    CHANNELS 3 Zrotation Xrotation Yrotation
    JOINT left_femur_tibia
    {
      OFFSET 0.8047443 -44.0398 -0.1307829
      CHANNELS 3 Zrotation Xrotation Yrotation
      JOINT left_tibia_foot
      {
        OFFSET -4.370144 -48.10324 -4.275266
        CHANNELS 3 Zrotation Xrotation Yrotation
        End Site
        {
          OFFSET 0 -5 15
        }
      }
    }
  }
  JOINT pelvis_spine1
  {
    OFFSET 0 6.468898 -3.129235
    CHANNELS 3 Zrotation Xrotation Yrotation
    JOINT spine1
    {
      OFFSET 0 23.15396 4.99043
      CHANNELS 3 Zrotation Xrotation Yrotation
      JOINT spine2
      {
        OFFSET 0 20.79997 -5.064912
        CHANNELS 3 Zrotation Xrotation Yrotation
        JOINT neck
        {
          OFFSET 0 14.38658 9.616178
          CHANNELS 3 Zrotation Xrotation Yrotation
          End Site
          {
            OFFSET 0 20 0
          }
        }
      }
      JOINT right_manubrium
      {
        OFFSET -5.722621 16.35077 3.967754
        CHANNELS 3 Zrotation Xrotation Yrotation
        JOINT right_clavicle
        {
          OFFSET -13.16364 1.694482 -4.693211
          CHANNELS 3 Zrotation Xrotation Yrotation
          JOINT right_humerus
          {
            OFFSET -28.5034 -0.3100689 -2.792744
            CHANNELS 3 Zrotation Xrotation Yrotation
            JOINT right_radius
            {
              OFFSET -25.15693 0.02248979 -1.271978
              CHANNELS 3 Zrotation Xrotation Yrotation
              End Site
              {
                OFFSET -15 0 0
              }
            }
          }
        }
      }
      JOINT left_manubrium
      {
        OFFSET 5.722621 16.35077 3.967754
        CHANNELS 3 Zrotation Xrotation Yrotation
        JOINT left_clavicle
        {
          OFFSET 13.16364 1.694482 -4.693211
          CHANNELS 3 Zrotation Xrotation Yrotation
          JOINT left_humerus
          {
            OFFSET 29.39168 -1.063119 -2.237045
            CHANNELS 3 Zrotation Xrotation Yrotation
            JOINT left_radius
            {
              OFFSET 24.59957 -0.9528479 0.9047498
              CHANNELS 3 Zrotation Xrotation Yrotation
              End Site
              {
                OFFSET 15 -0 -0
              }
            }
          }
        }
      }
    }
  }
}
MOTION
Frames: 7
Frame Time: 0.0416666666667
0 103.5113 0 1.172137 -1.520223 -0.3457679 2.455974 -12.70729 9.156929 -0 39.81396 -0 -7.204223 -18.06285 -2.736243 -7.254333 9.400348 -22.55389 -0 4.797333 -0 13.78521 -11.21196 28.0322 -4.174241 -4.149822 4.337613 3.143592 10.8773 -8.13345 0.5289486 22.12904 7.035822 3.015225 -24.11795 8.849467 7.202268 -20.45141 12.36239 84.8996 38.00498 -17.57495 -0 0 15.78877 -8.955236 8.242479 6.407652 4.853703 -19.28854 -2.270506 -91.94124 20.59189 20.13118 0 0 -12.76359 12.96565 14.18664 -2.39856
0.400832 103.5588 1.389114 1.092608 -1.220795 -0.6845826 2.759777 -14.19888 9.005956 -0 38.57704 -0 -7.081222 -17.15807 -2.578982 -7.220846 9.576756 -22.25808 -0 4.707697 -0 13.60983 -12.2241 28.00519 -4.180769 -4.050306 4.440102 3.126666 10.80327 -8.12599 0.6496514 21.90382 7.021895 3.127059 -24.27243 8.909142 7.125414 -20.33653 12.27416 84.8913 37.71029 -17.68055 -0 0 15.83496 -8.901768 8.268526 6.108012 5.318292 -19.62111 -1.987062 -91.83454 20.09037 19.80914 0 0 -13.02334 13.62229 14.21819 -3.211052
0.7675629 103.4976 2.933006 0.9904614 -0.7874078 -0.8996451 3.372467 -16.83612 9.052166 -0 36.93887 -0 -6.225777 -16.21624 -2.822087 -7.18182 10.22478 -22.2072 -0 4.945038 -0 11.97387 -15.02248 27.73233 -4.202818 -3.7679 4.606384 3.034726 10.20896 -8.013437 1.011733 21.72287 6.911682 3.193838 -24.41992 9.126491 6.849245 -19.96945 11.93482 84.9366 36.75523 -18.07054 -0 0 16.15734 -8.207469 8.193417 5.266514 5.903181 -19.76002 -1.457254 -92.32785 21.78576 19.99875 0 0 -13.90677 12.10661 15.08375 -1.294305
1.111912 103.3411 4.667715 0.8152025 -0.2160558 -1.000701 3.996037 -19.46765 8.955079 -0 35.09982 -0 -5.808979 -14.86836 -2.827332 -7.068282 10.63919 -21.88031 -0 5.046311 -0 10.70562 -17.24857 27.22063 -4.141486 -3.492678 4.718534 2.979581 9.824845 -7.990506 1.242021 21.41554 6.9044 3.353791 -24.67968 9.260339 6.687021 -19.69037 11.7085 84.97569 36.18855 -18.42614 -0 0 16.34919 -7.865163 8.245218 4.669199 6.500796 -20.08434 -1.024017 -92.57278 22.53742 20.03049 0 0 -14.68187 11.45163 15.55791 -0.4158499
1.434892 103.0754 6.647434 0.5803252 0.4927689 -0.9789646 4.637875 -22.34891 8.680181 -0 32.77632 -0 -5.659892 -13.18759 -2.704338 -6.885523 11.01705 -21.31576 -0 5.053575 -0 9.445669 -19.31507 26.37636 -4.018324 -3.18479 4.770353 2.947807 9.504772 -8.035031 1.396963 21.0322 6.963404 3.573338 -25.00389 9.339578 6.542148 -19.40286 11.51489 85.07311 35.80482 -18.85248 -0 0 16.37773 -7.749167 8.388478 4.21504 7.137912 -20.55117 -0.6456058 -92.60809 22.88742 19.8715 0 0 -15.58854 11.15505 15.85863 0.03999476
1.735069 102.6901 8.922171 0.2874224 1.285357 -0.8307928 5.286111 -25.35579 8.267273 -0 30.0715 -0 -5.717363 -11.30601 -2.49521 -6.637452 11.40445 -20.56347 -0 5.103333 -0 8.106916 -21.19059 25.20646 -3.826035 -2.85634 4.758726 2.934777 9.224332 -8.131014 1.493137 20.60974 7.066788 3.823849 -25.36257 9.374099 6.388008 -19.09544 11.34187 85.24231 35.51971 -19.35149 -0 0 16.24836 -7.811074 8.599172 3.88289 7.773396 -21.10328 -0.3317092 -92.47722 22.99681 19.55868 0 0 -16.61654 11.0564 16.03767 0.2645358
2.008453 102.1815 11.54495 -0.07276552 2.12039 -0.5567686 5.938859 -28.40468 7.735974 -0 27.05752 -0 -5.949269 -9.304649 -2.231652 -6.317881 11.84866 -19.65119 -0 5.33887 -0 6.586607 -22.83806 23.67974 -3.548032 -2.508437 4.670377 2.936615 8.960335 -8.266361 1.541971 20.17792 7.199329 4.084949 -25.7326 9.368782 6.201786 -18.74882 11.17845 85.50159 35.26738 -19.92927 -0 0 15.94921 -8.017779 8.856886 3.661622 8.368777 -21.69494 -0.09783535 -92.21539 23.00351 19.11805 0 0 -17.75802 11.01013 16.12994 0.433162
